<svg width="300" height="300" viewBox="0 0 300 300" fill="none" xmlns="http://www.w3.org/2000/svg">
<rect width="300" height="300" fill="#6D1B59"/>
<path d="M132.835 172.323L94.4013 140.705L57.7215 185.29L96.155 216.909L84.5719 230.989L46.1384 199.37L35.2979 212.548L17.2469 197.697C26.8226 188.02 36.4121 177.345 46.0151 165.672L115.662 81.0123C123.681 71.2648 130.07 62.3955 134.828 54.4044C142.181 61.8634 160.723 77.8232 190.452 102.284L178.87 116.365L140.437 84.7464L105.984 126.625L144.418 158.243L132.835 172.323Z" fill="white"/>
<path d="M169.438 128.692L157.855 142.772L195.055 173.375L160.603 215.254L123.403 184.65L111.818 198.729C111.884 198.783 111.95 198.837 112.015 198.891C141.86 223.443 159.925 239.011 166.212 245.596C169.902 239.148 176.351 230.328 185.558 219.136L257.284 131.95C264.412 123.285 272.962 113.874 282.934 103.715L264.702 88.716L254.901 100.63L217.701 70.026L206.118 84.1058L243.318 114.709L206.638 159.295L169.438 128.692Z" fill="white"/>
</svg>
