<svg width="300" height="300" viewBox="0 0 300 300" fill="none" xmlns="http://www.w3.org/2000/svg">
<rect width="300" height="300" fill="#1C4F0A"/>
<g filter="url(#filter0_d_139_4)">
<path d="M108.918 96.876C111.214 94.908 114.33 94.908 118.266 96.876C122.858 99.172 125.81 102.042 127.122 105.486C127.614 106.798 127.286 109.176 126.138 112.62C124.99 115.9 124.088 120.82 123.432 127.38C122.776 133.94 121.874 139.27 120.726 143.37C119.578 147.306 118.676 151.898 118.02 157.146C116.872 165.182 112.854 177.564 105.966 194.292C101.866 204.296 97.11 213.808 91.698 222.828C89.73 226.272 88.582 228.568 88.254 229.716C86.778 232.668 82.432 237.67 75.216 244.722C64.72 255.218 58.324 260.466 56.028 260.466C54.224 260.466 56.356 255.628 62.424 245.952C62.752 245.296 63.08 244.804 63.408 244.476C64.72 242.344 65.786 240.54 66.606 239.064C67.426 237.588 68.82 234.964 70.788 231.192C74.724 224.468 78.824 216.104 83.088 206.1C87.516 196.096 90.386 188.634 91.698 183.714L93.912 175.104L96.864 164.526C97.848 160.918 98.668 155.834 99.324 149.274C101.948 126.642 103.916 112.784 105.228 107.7C106.54 103.764 107.196 101.222 107.196 100.074C107.196 98.762 107.77 97.696 108.918 96.876ZM181.488 92.694C184.44 90.398 187.556 91.054 190.836 94.662C192.476 96.466 193.542 97.368 194.034 97.368C194.69 97.368 196.248 99.09 198.708 102.534C202.152 107.946 202.726 113.932 200.43 120.492C199.446 123.28 199.2 124.838 199.692 125.166C200.348 125.494 203.628 125.904 209.532 126.396C215.436 126.888 219.7 127.052 222.324 126.888C225.44 126.724 228.064 127.216 230.196 128.364C232.492 129.348 235.608 131.644 239.544 135.252C241.84 137.056 243.234 138.45 243.726 139.434C244.382 140.418 244.71 141.73 244.71 143.37C244.71 146.158 244.054 149.274 242.742 152.718C241.43 156.162 239.954 161.984 238.314 170.184C236.674 178.22 235.526 183.55 234.87 186.174C234.378 188.634 233.804 192.078 233.148 196.506C232.82 201.262 231.016 207.248 227.736 214.464C224.62 221.516 221.34 227.092 217.896 231.192C215.6 233.98 212.484 237.424 208.548 241.524C204.612 245.46 202.07 247.92 200.922 248.904C194.854 253.332 189.688 255.546 185.424 255.546C182.8 255.546 181.078 255.792 180.258 256.284C178.946 257.268 177.798 255.382 176.814 250.626C176.814 249.806 176.732 248.904 176.568 247.92C175.748 241.524 171.32 234.144 163.284 225.78C157.052 219.548 155.74 217.17 159.348 218.646C159.676 218.646 160.086 218.892 160.578 219.384C162.874 220.532 164.432 220.942 165.252 220.614C166.072 220.286 168.45 220.778 172.386 222.09C177.306 223.73 180.75 224.386 182.718 224.058C184.686 223.73 187.064 222.09 189.852 219.138C193.952 214.546 198.38 206.182 203.136 194.046C206.744 184.206 208.876 172.398 209.532 158.622C209.696 152.882 209.696 149.274 209.532 147.798C209.532 146.158 209.04 144.682 208.056 143.37C206.744 141.73 204.284 140.91 200.676 140.91C200.348 140.91 199.856 140.746 199.2 140.418C197.068 140.418 195.428 141.156 194.28 142.632C193.296 144.108 190.836 149.52 186.9 158.868C185.588 161.328 184.604 163.378 183.948 165.018C181.98 169.774 179.274 175.104 175.83 181.008C172.55 186.912 170.418 191.012 169.434 193.308C168.45 195.44 166.564 197.818 163.776 200.442C161.152 203.066 158.61 205.69 156.15 208.314C153.526 211.102 148.196 216.35 140.16 224.058C132.124 231.766 127.368 236.194 125.892 237.342C117.856 243.246 113.756 245.542 113.592 244.23C113.592 243.574 116.052 239.146 120.972 230.946C126.056 222.582 129.5 217.334 131.304 215.202C133.272 212.578 134.256 210.938 134.256 210.282C134.256 209.462 134.584 208.97 135.24 208.806C136.224 208.15 138.684 204.624 142.62 198.228C146.556 191.832 149.344 186.502 150.984 182.238C154.428 174.694 157.626 166.74 160.578 158.376C163.53 149.848 165.006 144.764 165.006 143.124C165.006 142.304 163.94 142.304 161.808 143.124C159.84 143.78 157.544 144.846 154.92 146.322C152.296 147.798 150.41 149.11 149.262 150.258C146.802 153.046 144.752 154.194 143.112 153.702C139.34 152.554 136.962 148.946 135.978 142.878C135.486 139.926 134.83 138.04 134.01 137.22C133.354 136.236 133.764 135.088 135.24 133.776C137.208 131.152 145.408 128.774 159.84 126.642C166.564 125.822 170.09 125.084 170.418 124.428C170.91 123.608 171.484 121.476 172.14 118.032C172.632 114.096 174.436 108.438 177.552 101.058C178.536 98.598 179.028 96.958 179.028 96.138C179.028 95.154 179.848 94.006 181.488 92.694ZM151.722 53.826C160.578 52.514 171.812 51.858 185.424 51.858C199.2 51.694 207.4 52.186 210.024 53.334C212.812 54.318 214.452 57.024 214.944 61.452C215.6 65.716 214.944 69.57 212.976 73.014C209.368 78.918 204.284 79 197.724 73.26C195.1 71.128 192.558 69.734 190.098 69.078C186.982 68.422 179.848 68.258 168.696 68.586C157.708 68.914 150.164 69.57 146.064 70.554C142.292 71.374 139.668 72.112 138.192 72.768C136.716 73.424 134.584 74.982 131.796 77.442C130.648 78.59 129.664 79.246 128.844 79.41C128.188 79.574 127.04 79.41 125.4 78.918C118.84 76.622 115.396 72.932 115.068 67.848C115.068 65.88 115.232 64.568 115.56 63.912C115.888 63.092 116.79 62.19 118.266 61.206C122.858 58.418 134.01 55.958 151.722 53.826Z" fill="#A8FF3E"/>
</g>
<defs>
<filter id="filter0_d_139_4" x="49.322" y="51.6119" width="199.388" height="216.854" filterUnits="userSpaceOnUse" color-interpolation-filters="sRGB">
<feFlood flood-opacity="0" result="BackgroundImageFix"/>
<feColorMatrix in="SourceAlpha" type="matrix" values="0 0 0 0 0 0 0 0 0 0 0 0 0 0 0 0 0 0 127 0" result="hardAlpha"/>
<feOffset dy="4"/>
<feGaussianBlur stdDeviation="2"/>
<feComposite in2="hardAlpha" operator="out"/>
<feColorMatrix type="matrix" values="0 0 0 0 0 0 0 0 0 0 0 0 0 0 0 0 0 0 0.25 0"/>
<feBlend mode="normal" in2="BackgroundImageFix" result="effect1_dropShadow_139_4"/>
<feBlend mode="normal" in="SourceGraphic" in2="effect1_dropShadow_139_4" result="shape"/>
</filter>
</defs>
</svg>
